<mxfile host="app.diagrams.net" modified="2021-01-02T16:29:49.397Z" agent="5.0 (Macintosh; Intel Mac OS X 10_15_6) AppleWebKit/605.1.15 (KHTML, like Gecko) Version/14.0.1 Safari/605.1.15" etag="jcg7Lat622YxMoSqVmwu" version="14.1.3" type="github">
  <diagram id="_luvdSTD__BYO-KGzidT" name="Page-1">
    <mxGraphModel dx="1186" dy="1045" grid="0" gridSize="10" guides="1" tooltips="1" connect="1" arrows="1" fold="1" page="0" pageScale="1" pageWidth="827" pageHeight="1169" math="0" shadow="0">
      <root>
        <mxCell id="0" />
        <mxCell id="1" parent="0" />
        <mxCell id="zBJNnqJArTvOOcfaqeSt-1" value="NHANVIEN" style="rounded=0;whiteSpace=wrap;html=1;" parent="1" vertex="1">
          <mxGeometry x="315" y="-120" width="120" height="40" as="geometry" />
        </mxCell>
        <mxCell id="zBJNnqJArTvOOcfaqeSt-3" value="HOADONBANHANG" style="rounded=0;whiteSpace=wrap;html=1;" parent="1" vertex="1">
          <mxGeometry x="10" y="-330" width="120" height="40" as="geometry" />
        </mxCell>
        <mxCell id="zBJNnqJArTvOOcfaqeSt-4" value="KHACHHANG" style="rounded=0;whiteSpace=wrap;html=1;" parent="1" vertex="1">
          <mxGeometry x="17" y="-27" width="120" height="40" as="geometry" />
        </mxCell>
        <mxCell id="zBJNnqJArTvOOcfaqeSt-6" value="CALAMVIEC" style="rounded=0;whiteSpace=wrap;html=1;" parent="1" vertex="1">
          <mxGeometry x="300" y="160" width="120" height="40" as="geometry" />
        </mxCell>
        <mxCell id="zBJNnqJArTvOOcfaqeSt-7" value="NHACUNGCAP" style="rounded=0;whiteSpace=wrap;html=1;" parent="1" vertex="1">
          <mxGeometry x="660" y="-120" width="120" height="40" as="geometry" />
        </mxCell>
        <mxCell id="zBJNnqJArTvOOcfaqeSt-9" value="HANGHOA" style="rounded=0;whiteSpace=wrap;html=1;" parent="1" vertex="1">
          <mxGeometry x="330" y="-330" width="90" height="40" as="geometry" />
        </mxCell>
        <mxCell id="zBJNnqJArTvOOcfaqeSt-11" value="Chứa" style="rhombus;whiteSpace=wrap;html=1;" parent="1" vertex="1">
          <mxGeometry x="180" y="-330" width="90" height="40" as="geometry" />
        </mxCell>
        <mxCell id="zBJNnqJArTvOOcfaqeSt-13" value="" style="endArrow=none;html=1;exitX=1;exitY=0.5;exitDx=0;exitDy=0;entryX=0;entryY=0.5;entryDx=0;entryDy=0;" parent="1" source="zBJNnqJArTvOOcfaqeSt-11" target="zBJNnqJArTvOOcfaqeSt-9" edge="1">
          <mxGeometry width="50" height="50" relative="1" as="geometry">
            <mxPoint x="240" y="-141" as="sourcePoint" />
            <mxPoint x="290" y="-191" as="targetPoint" />
          </mxGeometry>
        </mxCell>
        <mxCell id="zBJNnqJArTvOOcfaqeSt-14" value="" style="endArrow=none;html=1;exitX=1;exitY=0.5;exitDx=0;exitDy=0;" parent="1" source="zBJNnqJArTvOOcfaqeSt-3" target="zBJNnqJArTvOOcfaqeSt-11" edge="1">
          <mxGeometry width="50" height="50" relative="1" as="geometry">
            <mxPoint x="280" y="-130" as="sourcePoint" />
            <mxPoint x="330" y="-180" as="targetPoint" />
          </mxGeometry>
        </mxCell>
        <mxCell id="zBJNnqJArTvOOcfaqeSt-15" value="n,n" style="text;html=1;strokeColor=none;fillColor=none;align=center;verticalAlign=middle;whiteSpace=wrap;rounded=0;" parent="1" vertex="1">
          <mxGeometry x="140" y="-330" width="40" height="20" as="geometry" />
        </mxCell>
        <mxCell id="zBJNnqJArTvOOcfaqeSt-16" value="n,n" style="text;html=1;strokeColor=none;fillColor=none;align=center;verticalAlign=middle;whiteSpace=wrap;rounded=0;" parent="1" vertex="1">
          <mxGeometry x="280" y="-330" width="40" height="20" as="geometry" />
        </mxCell>
        <mxCell id="zBJNnqJArTvOOcfaqeSt-28" value="NGUYENLIEU" style="rounded=0;whiteSpace=wrap;html=1;" parent="1" vertex="1">
          <mxGeometry x="660" y="-330" width="120" height="40" as="geometry" />
        </mxCell>
        <mxCell id="zBJNnqJArTvOOcfaqeSt-29" value="Lấy" style="rhombus;whiteSpace=wrap;html=1;" parent="1" vertex="1">
          <mxGeometry x="520" y="-240" width="100" height="45" as="geometry" />
        </mxCell>
        <mxCell id="zBJNnqJArTvOOcfaqeSt-30" value="" style="endArrow=none;html=1;exitX=1;exitY=0.5;exitDx=0;exitDy=0;entryX=0;entryY=0.5;entryDx=0;entryDy=0;" parent="1" source="zBJNnqJArTvOOcfaqeSt-1" target="zBJNnqJArTvOOcfaqeSt-29" edge="1">
          <mxGeometry width="50" height="50" relative="1" as="geometry">
            <mxPoint x="450" y="-120" as="sourcePoint" />
            <mxPoint x="500" y="-170" as="targetPoint" />
            <Array as="points">
              <mxPoint x="435" y="-217" />
            </Array>
          </mxGeometry>
        </mxCell>
        <mxCell id="zBJNnqJArTvOOcfaqeSt-31" value="" style="endArrow=none;html=1;entryX=1;entryY=0.5;entryDx=0;entryDy=0;exitX=0.25;exitY=1;exitDx=0;exitDy=0;" parent="1" source="zBJNnqJArTvOOcfaqeSt-28" target="zBJNnqJArTvOOcfaqeSt-29" edge="1">
          <mxGeometry width="50" height="50" relative="1" as="geometry">
            <mxPoint x="450" y="-120" as="sourcePoint" />
            <mxPoint x="500" y="-170" as="targetPoint" />
            <Array as="points">
              <mxPoint x="690" y="-217" />
            </Array>
          </mxGeometry>
        </mxCell>
        <mxCell id="zBJNnqJArTvOOcfaqeSt-32" value="1,n" style="text;html=1;strokeColor=none;fillColor=none;align=center;verticalAlign=middle;whiteSpace=wrap;rounded=0;" parent="1" vertex="1">
          <mxGeometry x="450" y="-240" width="40" height="20" as="geometry" />
        </mxCell>
        <mxCell id="zBJNnqJArTvOOcfaqeSt-33" value="1,n" style="text;html=1;strokeColor=none;fillColor=none;align=center;verticalAlign=middle;whiteSpace=wrap;rounded=0;" parent="1" vertex="1">
          <mxGeometry x="650" y="-240" width="40" height="20" as="geometry" />
        </mxCell>
        <mxCell id="zBJNnqJArTvOOcfaqeSt-35" value="Cung cấp" style="rhombus;whiteSpace=wrap;html=1;" parent="1" vertex="1">
          <mxGeometry x="680" y="-220" width="80" height="50" as="geometry" />
        </mxCell>
        <mxCell id="zBJNnqJArTvOOcfaqeSt-37" value="" style="endArrow=none;html=1;entryX=0.5;entryY=1;entryDx=0;entryDy=0;exitX=0.5;exitY=0;exitDx=0;exitDy=0;" parent="1" source="zBJNnqJArTvOOcfaqeSt-7" target="zBJNnqJArTvOOcfaqeSt-35" edge="1">
          <mxGeometry width="50" height="50" relative="1" as="geometry">
            <mxPoint x="380" y="-40" as="sourcePoint" />
            <mxPoint x="430" y="-90" as="targetPoint" />
          </mxGeometry>
        </mxCell>
        <mxCell id="zBJNnqJArTvOOcfaqeSt-39" value="" style="endArrow=none;html=1;entryX=0.5;entryY=1;entryDx=0;entryDy=0;exitX=0.5;exitY=0;exitDx=0;exitDy=0;" parent="1" source="zBJNnqJArTvOOcfaqeSt-35" target="zBJNnqJArTvOOcfaqeSt-28" edge="1">
          <mxGeometry width="50" height="50" relative="1" as="geometry">
            <mxPoint x="380" y="-40" as="sourcePoint" />
            <mxPoint x="430" y="-90" as="targetPoint" />
          </mxGeometry>
        </mxCell>
        <mxCell id="zBJNnqJArTvOOcfaqeSt-40" value="1,n" style="text;html=1;strokeColor=none;fillColor=none;align=center;verticalAlign=middle;whiteSpace=wrap;rounded=0;" parent="1" vertex="1">
          <mxGeometry x="720" y="-260" width="40" height="20" as="geometry" />
        </mxCell>
        <mxCell id="zBJNnqJArTvOOcfaqeSt-41" value="1,n" style="text;html=1;strokeColor=none;fillColor=none;align=center;verticalAlign=middle;whiteSpace=wrap;rounded=0;" parent="1" vertex="1">
          <mxGeometry x="720" y="-160" width="40" height="20" as="geometry" />
        </mxCell>
        <mxCell id="zBJNnqJArTvOOcfaqeSt-42" value="Xếp" style="rhombus;whiteSpace=wrap;html=1;" parent="1" vertex="1">
          <mxGeometry x="500" y="155" width="90" height="50" as="geometry" />
        </mxCell>
        <mxCell id="zBJNnqJArTvOOcfaqeSt-44" value="QUANLY" style="rounded=0;whiteSpace=wrap;html=1;" parent="1" vertex="1">
          <mxGeometry x="660" y="160" width="120" height="40" as="geometry" />
        </mxCell>
        <mxCell id="zBJNnqJArTvOOcfaqeSt-46" value="" style="endArrow=none;html=1;entryX=0;entryY=0.5;entryDx=0;entryDy=0;exitX=1;exitY=0.5;exitDx=0;exitDy=0;" parent="1" source="zBJNnqJArTvOOcfaqeSt-6" target="zBJNnqJArTvOOcfaqeSt-42" edge="1">
          <mxGeometry width="50" height="50" relative="1" as="geometry">
            <mxPoint x="320" y="-30" as="sourcePoint" />
            <mxPoint x="370" y="-80" as="targetPoint" />
          </mxGeometry>
        </mxCell>
        <mxCell id="zBJNnqJArTvOOcfaqeSt-47" value="" style="endArrow=none;html=1;entryX=0;entryY=0.5;entryDx=0;entryDy=0;exitX=1;exitY=0.5;exitDx=0;exitDy=0;" parent="1" source="zBJNnqJArTvOOcfaqeSt-42" target="zBJNnqJArTvOOcfaqeSt-44" edge="1">
          <mxGeometry width="50" height="50" relative="1" as="geometry">
            <mxPoint x="320" y="-30" as="sourcePoint" />
            <mxPoint x="370" y="-80" as="targetPoint" />
          </mxGeometry>
        </mxCell>
        <mxCell id="zBJNnqJArTvOOcfaqeSt-48" value="n,n" style="text;html=1;strokeColor=none;fillColor=none;align=center;verticalAlign=middle;whiteSpace=wrap;rounded=0;" parent="1" vertex="1">
          <mxGeometry x="430" y="160" width="40" height="20" as="geometry" />
        </mxCell>
        <mxCell id="zBJNnqJArTvOOcfaqeSt-49" value="n,n" style="text;html=1;strokeColor=none;fillColor=none;align=center;verticalAlign=middle;whiteSpace=wrap;rounded=0;" parent="1" vertex="1">
          <mxGeometry x="610" y="160" width="40" height="20" as="geometry" />
        </mxCell>
        <mxCell id="zBJNnqJArTvOOcfaqeSt-50" value="Yêu cầu" style="rhombus;whiteSpace=wrap;html=1;" parent="1" vertex="1">
          <mxGeometry x="672.5" width="95" height="50" as="geometry" />
        </mxCell>
        <mxCell id="zBJNnqJArTvOOcfaqeSt-51" value="" style="endArrow=none;html=1;entryX=0.5;entryY=1;entryDx=0;entryDy=0;exitX=0.5;exitY=0;exitDx=0;exitDy=0;" parent="1" source="zBJNnqJArTvOOcfaqeSt-50" target="zBJNnqJArTvOOcfaqeSt-7" edge="1">
          <mxGeometry width="50" height="50" relative="1" as="geometry">
            <mxPoint x="440" y="-30" as="sourcePoint" />
            <mxPoint x="490" y="-80" as="targetPoint" />
          </mxGeometry>
        </mxCell>
        <mxCell id="zBJNnqJArTvOOcfaqeSt-52" value="" style="endArrow=none;html=1;entryX=0.5;entryY=1;entryDx=0;entryDy=0;exitX=0.5;exitY=0;exitDx=0;exitDy=0;" parent="1" source="zBJNnqJArTvOOcfaqeSt-44" target="zBJNnqJArTvOOcfaqeSt-50" edge="1">
          <mxGeometry width="50" height="50" relative="1" as="geometry">
            <mxPoint x="440" y="-30" as="sourcePoint" />
            <mxPoint x="490" y="-80" as="targetPoint" />
          </mxGeometry>
        </mxCell>
        <mxCell id="zBJNnqJArTvOOcfaqeSt-53" value="1,n" style="text;html=1;strokeColor=none;fillColor=none;align=center;verticalAlign=middle;whiteSpace=wrap;rounded=0;" parent="1" vertex="1">
          <mxGeometry x="720" y="-40" width="40" height="20" as="geometry" />
        </mxCell>
        <mxCell id="zBJNnqJArTvOOcfaqeSt-54" value="1,n" style="text;html=1;strokeColor=none;fillColor=none;align=center;verticalAlign=middle;whiteSpace=wrap;rounded=0;" parent="1" vertex="1">
          <mxGeometry x="720" y="90" width="40" height="20" as="geometry" />
        </mxCell>
        <mxCell id="zBJNnqJArTvOOcfaqeSt-63" value="Phân công" style="rhombus;whiteSpace=wrap;html=1;" parent="1" vertex="1">
          <mxGeometry x="500" y="-30" width="100" height="60" as="geometry" />
        </mxCell>
        <mxCell id="zBJNnqJArTvOOcfaqeSt-64" value="" style="endArrow=none;html=1;entryX=0.75;entryY=1;entryDx=0;entryDy=0;exitX=0.5;exitY=0;exitDx=0;exitDy=0;" parent="1" source="zBJNnqJArTvOOcfaqeSt-63" target="zBJNnqJArTvOOcfaqeSt-1" edge="1">
          <mxGeometry width="50" height="50" relative="1" as="geometry">
            <mxPoint x="360" y="-10" as="sourcePoint" />
            <mxPoint x="410" y="-60" as="targetPoint" />
            <Array as="points">
              <mxPoint x="550" y="-80" />
            </Array>
          </mxGeometry>
        </mxCell>
        <mxCell id="zBJNnqJArTvOOcfaqeSt-65" value="" style="endArrow=none;html=1;entryX=0.5;entryY=1;entryDx=0;entryDy=0;" parent="1" target="zBJNnqJArTvOOcfaqeSt-63" edge="1">
          <mxGeometry width="50" height="50" relative="1" as="geometry">
            <mxPoint x="720" y="160" as="sourcePoint" />
            <mxPoint x="410" y="-60" as="targetPoint" />
            <Array as="points">
              <mxPoint x="650" y="110" />
            </Array>
          </mxGeometry>
        </mxCell>
        <mxCell id="zBJNnqJArTvOOcfaqeSt-66" value="1,n" style="text;html=1;strokeColor=none;fillColor=none;align=center;verticalAlign=middle;whiteSpace=wrap;rounded=0;" parent="1" vertex="1">
          <mxGeometry x="460" y="-100" width="40" height="20" as="geometry" />
        </mxCell>
        <mxCell id="zBJNnqJArTvOOcfaqeSt-68" value="1,n" style="text;html=1;strokeColor=none;fillColor=none;align=center;verticalAlign=middle;whiteSpace=wrap;rounded=0;" parent="1" vertex="1">
          <mxGeometry x="620" y="70" width="40" height="20" as="geometry" />
        </mxCell>
        <mxCell id="zBJNnqJArTvOOcfaqeSt-79" value="Tạo" style="rhombus;whiteSpace=wrap;html=1;" parent="1" vertex="1">
          <mxGeometry x="180" y="-220" width="80" height="50" as="geometry" />
        </mxCell>
        <mxCell id="zBJNnqJArTvOOcfaqeSt-85" value="" style="endArrow=none;html=1;exitX=1;exitY=0.5;exitDx=0;exitDy=0;entryX=0;entryY=0;entryDx=0;entryDy=0;" parent="1" source="zBJNnqJArTvOOcfaqeSt-79" target="zBJNnqJArTvOOcfaqeSt-1" edge="1">
          <mxGeometry width="50" height="50" relative="1" as="geometry">
            <mxPoint x="300" y="10" as="sourcePoint" />
            <mxPoint x="350" y="-40" as="targetPoint" />
          </mxGeometry>
        </mxCell>
        <mxCell id="zBJNnqJArTvOOcfaqeSt-86" value="" style="endArrow=none;html=1;exitX=1;exitY=1;exitDx=0;exitDy=0;entryX=0;entryY=0.5;entryDx=0;entryDy=0;" parent="1" source="zBJNnqJArTvOOcfaqeSt-3" target="zBJNnqJArTvOOcfaqeSt-79" edge="1">
          <mxGeometry width="50" height="50" relative="1" as="geometry">
            <mxPoint x="300" y="10" as="sourcePoint" />
            <mxPoint x="350" y="-40" as="targetPoint" />
          </mxGeometry>
        </mxCell>
        <mxCell id="zBJNnqJArTvOOcfaqeSt-87" value="1,n" style="text;html=1;strokeColor=none;fillColor=none;align=center;verticalAlign=middle;whiteSpace=wrap;rounded=0;" parent="1" vertex="1">
          <mxGeometry x="280" y="-170" width="40" height="20" as="geometry" />
        </mxCell>
        <mxCell id="zBJNnqJArTvOOcfaqeSt-88" value="1,n" style="text;html=1;strokeColor=none;fillColor=none;align=center;verticalAlign=middle;whiteSpace=wrap;rounded=0;" parent="1" vertex="1">
          <mxGeometry x="155" y="-262" width="40" height="20" as="geometry" />
        </mxCell>
        <mxCell id="7HIa2qU4h1kdcFGVqVgo-1" value="" style="endArrow=none;html=1;exitX=0.5;exitY=0;exitDx=0;exitDy=0;" edge="1" parent="1" source="zBJNnqJArTvOOcfaqeSt-6">
          <mxGeometry width="50" height="50" relative="1" as="geometry">
            <mxPoint x="369" y="-83" as="sourcePoint" />
            <mxPoint x="499" as="targetPoint" />
          </mxGeometry>
        </mxCell>
        <mxCell id="7HIa2qU4h1kdcFGVqVgo-2" value="1,n" style="text;html=1;strokeColor=none;fillColor=none;align=center;verticalAlign=middle;whiteSpace=wrap;rounded=0;" vertex="1" parent="1">
          <mxGeometry x="375" y="90" width="40" height="20" as="geometry" />
        </mxCell>
        <mxCell id="7HIa2qU4h1kdcFGVqVgo-4" value="" style="endArrow=none;html=1;entryX=0.5;entryY=1;entryDx=0;entryDy=0;" edge="1" parent="1" source="7HIa2qU4h1kdcFGVqVgo-3" target="zBJNnqJArTvOOcfaqeSt-4">
          <mxGeometry width="50" height="50" relative="1" as="geometry">
            <mxPoint x="78" y="162" as="sourcePoint" />
            <mxPoint x="421" y="24" as="targetPoint" />
          </mxGeometry>
        </mxCell>
        <mxCell id="7HIa2qU4h1kdcFGVqVgo-5" value="" style="endArrow=none;html=1;entryX=0.5;entryY=1;entryDx=0;entryDy=0;" edge="1" parent="1" source="7HIa2qU4h1kdcFGVqVgo-3" target="zBJNnqJArTvOOcfaqeSt-44">
          <mxGeometry width="50" height="50" relative="1" as="geometry">
            <mxPoint x="77" y="113" as="sourcePoint" />
            <mxPoint x="421" y="24" as="targetPoint" />
            <Array as="points">
              <mxPoint x="77" y="262" />
              <mxPoint x="720" y="262" />
            </Array>
          </mxGeometry>
        </mxCell>
        <mxCell id="7HIa2qU4h1kdcFGVqVgo-3" value="Phản hồi" style="rhombus;whiteSpace=wrap;html=1;" vertex="1" parent="1">
          <mxGeometry x="24" y="166" width="106" height="57" as="geometry" />
        </mxCell>
        <mxCell id="7HIa2qU4h1kdcFGVqVgo-6" value="" style="endArrow=none;html=1;entryX=0.5;entryY=1;entryDx=0;entryDy=0;exitX=0.5;exitY=1;exitDx=0;exitDy=0;" edge="1" parent="1" source="7HIa2qU4h1kdcFGVqVgo-3" target="7HIa2qU4h1kdcFGVqVgo-3">
          <mxGeometry width="50" height="50" relative="1" as="geometry">
            <mxPoint x="77" y="113" as="sourcePoint" />
            <mxPoint x="720" y="200" as="targetPoint" />
            <Array as="points" />
          </mxGeometry>
        </mxCell>
        <mxCell id="7HIa2qU4h1kdcFGVqVgo-7" value="1,n" style="text;html=1;strokeColor=none;fillColor=none;align=center;verticalAlign=middle;whiteSpace=wrap;rounded=0;" vertex="1" parent="1">
          <mxGeometry x="335" y="-67" width="40" height="20" as="geometry" />
        </mxCell>
        <mxCell id="7HIa2qU4h1kdcFGVqVgo-8" value="1,n" style="text;html=1;strokeColor=none;fillColor=none;align=center;verticalAlign=middle;whiteSpace=wrap;rounded=0;" vertex="1" parent="1">
          <mxGeometry x="161" y="-27" width="40" height="20" as="geometry" />
        </mxCell>
        <mxCell id="7HIa2qU4h1kdcFGVqVgo-9" value="1,n" style="text;html=1;strokeColor=none;fillColor=none;align=center;verticalAlign=middle;whiteSpace=wrap;rounded=0;" vertex="1" parent="1">
          <mxGeometry x="647" y="243" width="40" height="20" as="geometry" />
        </mxCell>
        <mxCell id="7HIa2qU4h1kdcFGVqVgo-10" value="1,n" style="text;html=1;strokeColor=none;fillColor=none;align=center;verticalAlign=middle;whiteSpace=wrap;rounded=0;" vertex="1" parent="1">
          <mxGeometry x="79" y="126" width="40" height="20" as="geometry" />
        </mxCell>
        <mxCell id="7HIa2qU4h1kdcFGVqVgo-11" value="Trả đồ" style="rhombus;whiteSpace=wrap;html=1;" vertex="1" parent="1">
          <mxGeometry x="245" y="-33.5" width="101" height="53" as="geometry" />
        </mxCell>
        <mxCell id="7HIa2qU4h1kdcFGVqVgo-12" value="" style="endArrow=none;html=1;exitX=1;exitY=0.5;exitDx=0;exitDy=0;entryX=0;entryY=0.5;entryDx=0;entryDy=0;" edge="1" parent="1" source="zBJNnqJArTvOOcfaqeSt-4" target="7HIa2qU4h1kdcFGVqVgo-11">
          <mxGeometry width="50" height="50" relative="1" as="geometry">
            <mxPoint x="373" y="-30" as="sourcePoint" />
            <mxPoint x="423" y="-80" as="targetPoint" />
          </mxGeometry>
        </mxCell>
        <mxCell id="7HIa2qU4h1kdcFGVqVgo-13" value="" style="endArrow=none;html=1;exitX=1;exitY=0.5;exitDx=0;exitDy=0;entryX=0.5;entryY=1;entryDx=0;entryDy=0;" edge="1" parent="1" source="7HIa2qU4h1kdcFGVqVgo-11" target="zBJNnqJArTvOOcfaqeSt-1">
          <mxGeometry width="50" height="50" relative="1" as="geometry">
            <mxPoint x="373" y="-30" as="sourcePoint" />
            <mxPoint x="423" y="-80" as="targetPoint" />
            <Array as="points">
              <mxPoint x="375" y="-7" />
            </Array>
          </mxGeometry>
        </mxCell>
      </root>
    </mxGraphModel>
  </diagram>
</mxfile>
